<svg xmlns="http://www.w3.org/2000/svg" width="32" height="32" viewBox="0 0 32 32">
  <circle cx="16" cy="16" r="16" fill="#C0634A"/>
  <g transform="translate(4, 4)" stroke="#FFFFFF" stroke-width="1.5" stroke-linecap="round" stroke-linejoin="round" fill="none">
    <path d="M12 5a3 3 0 1 1 3 3m-3-3a3 3 0 1 0-3 3m3-3v1"/>
    <path d="M9 8a3 3 0 1 0 3 3M9 8h1"/>
    <path d="M15 8a3 3 0 1 1-3 3m3-3h-1"/>
    <path d="M12 11v-1"/>
    <circle cx="12" cy="8" r="2"/>
    <path d="M12 14v5"/>
    <path d="M10 18c.5-1.5 1.5-2 2-2"/>
    <path d="M14 18c-.5-1.5-1.5-2-2-2"/>
  </g>
</svg>
